<svg width="28" height="28" viewBox="0 0 26 26" fill="none" xmlns="http://www.w3.org/2000/svg">
    <path d="M10.8776 15.639C13.7524 15.639 16.2689 14.0813 16.2689 10.6196C16.2689 7.15786 13.7524 5.6001 10.8776 5.6001C8.00276 5.6001 5.48633 7.15786 5.48633 10.6196C5.48633 11.891 5.82581 12.9056 6.39785 13.6806C6.60535 13.9617 6.56163 14.6169 6.3958 14.9244C5.99893 15.6604 6.74877 16.4669 7.56381 16.2801C8.17388 16.1402 8.8138 15.951 9.37381 15.6972C9.57884 15.6042 9.80523 15.5667 10.0289 15.592C10.3068 15.6235 10.5904 15.639 10.8776 15.639Z" stroke="current" stroke-width="1.54286" stroke-linecap="round" stroke-linejoin="round"/>
    <path d="M19.3486 11.5144C19.9945 12.3077 20.383 13.3738 20.383 14.7339C20.383 16.0053 20.0435 17.0199 19.4714 17.7949C19.2639 18.076 19.3077 18.7312 19.4735 19.0387C19.8704 19.7747 19.1205 20.5812 18.3055 20.3944C17.6954 20.2545 17.0555 20.0653 16.4955 19.8115C16.2905 19.7185 16.0641 19.681 15.8404 19.7063C15.5625 19.7378 15.2789 19.7533 14.9917 19.7533C13.6589 19.7533 12.4031 19.4185 11.4395 18.7144" stroke="current" stroke-width="1.54286" stroke-linecap="round" stroke-linejoin="round"/>
</svg>
