<svg width="80" height="25" viewBox="0 0 66 25" fill="none" xmlns="http://www.w3.org/2000/svg">
    <path d="M63.5473 8.98291L63.5486 8.98433C63.8865 9.36444 64.1504 9.83218 64.3433 10.3832L64.344 10.3852L64.3446 10.3872C64.5249 10.9419 64.6131 11.5805 64.6131 12.3001L64.6131 18.1123C64.6131 18.2666 64.4881 18.3916 64.3338 18.3916L62.9639 18.3916C62.8096 18.3916 62.6846 18.2666 62.6846 18.1123L62.6846 12.4996C62.6846 11.4812 62.4746 10.778 62.0932 10.3489C61.7146 9.923 61.1224 9.69322 60.2772 9.69322C59.3797 9.69322 58.6973 9.99397 58.2058 10.5838L58.2055 10.5841C57.6951 11.1942 57.431 12.0126 57.431 13.0582L57.431 18.1123C57.431 18.2666 57.3059 18.3916 57.1517 18.3916L55.7817 18.3916C55.6275 18.3916 55.5024 18.2666 55.5024 18.1123L55.5024 4.14401C55.5024 4.08692 55.5487 4.04063 55.6058 4.04063L57.3276 4.04063C57.3847 4.04063 57.431 4.08692 57.431 4.14401L57.431 9.30365C57.431 9.34188 57.4462 9.37855 57.4732 9.40556C57.5379 9.47019 57.6456 9.45884 57.6985 9.38428C57.9637 9.01074 58.2749 8.69481 58.6325 8.43807C59.19 8.03781 59.889 7.84452 60.7161 7.84452C61.2825 7.84452 61.8112 7.94122 62.3002 8.1366C62.7788 8.31984 63.1947 8.60202 63.5461 8.98153L63.5473 8.98291Z"
          fill="#FAF9F8"/>
    <path d="M63.5647 8.9675L63.5644 8.96715L63.5631 8.96577C63.2093 8.58372 62.7906 8.29952 62.3086 8.11499C61.8167 7.91847 61.2852 7.82132 60.7161 7.82132C59.8854 7.82132 59.1813 8.0155 58.6189 8.41923C58.2591 8.67754 57.9462 8.99533 57.6796 9.37085C57.6346 9.43423 57.5437 9.44318 57.4896 9.38915C57.4669 9.36648 57.4541 9.33572 57.4541 9.30365L57.4541 4.14401C57.4541 4.0741 57.3975 4.01744 57.3276 4.01744L55.6058 4.01744C55.5359 4.01744 55.4793 4.07411 55.4793 4.14401L55.4793 18.1123C55.4793 18.2794 55.6147 18.4148 55.7817 18.4148L57.1517 18.4148C57.3187 18.4148 57.4541 18.2794 57.4541 18.1123L57.4541 13.0582C57.4541 12.0165 57.7172 11.2039 58.2233 10.599L58.2234 10.599L58.2236 10.5987C58.7101 10.0149 59.3855 9.71642 60.2772 9.71642C61.1183 9.71642 61.7031 9.945 62.0759 10.3644C62.4517 10.7872 62.6614 11.4836 62.6614 12.4996L62.6614 18.1123C62.6614 18.2794 62.7968 18.4148 62.9639 18.4148L64.3338 18.4148C64.5009 18.4148 64.6363 18.2794 64.6363 18.1123L64.6363 12.3001C64.6363 11.5786 64.5479 10.9375 64.3667 10.38L64.3667 10.38L64.366 10.378L64.3659 10.3775L64.3652 10.3755C64.1715 9.82215 63.9061 9.35165 63.5659 8.96892L63.5647 8.9675Z"
          stroke="#FAF9F8" stroke-width="0.0463912"/>
    <path fill-rule="evenodd" clip-rule="evenodd"
          d="M49.6069 12.265L49.6075 12.265C50.7819 12.3595 51.7 12.6444 52.3386 13.1402C53.0044 13.6332 53.3299 14.3579 53.3299 15.2836V15.4033C53.3299 15.9082 53.2246 16.3699 53.0105 16.7843C52.8114 17.1822 52.5274 17.5223 52.1614 17.8042C51.8063 18.0879 51.3712 18.2969 50.8611 18.4351C50.3631 18.5869 49.8201 18.6618 49.2335 18.6618C48.4468 18.6618 47.7595 18.5602 47.1758 18.3517L47.1733 18.3508L47.1707 18.3498C46.6082 18.1303 46.1294 17.8469 45.7378 17.4973L45.7352 17.495L45.7327 17.4925C45.3573 17.1311 45.07 16.7255 44.8733 16.2759L44.8729 16.275L44.8725 16.274C44.6901 15.8442 44.5803 15.4118 44.5446 14.9774C44.5333 14.8388 44.6259 14.717 44.7563 14.6853L46.0517 14.3702C46.2197 14.3293 46.3776 14.448 46.397 14.6114C46.476 15.2781 46.7452 15.8109 47.2022 16.2214C47.6789 16.6365 48.3228 16.853 49.1537 16.853C49.8632 16.853 50.4095 16.7174 50.8087 16.4636C51.2099 16.2038 51.4014 15.8558 51.4014 15.4033C51.4014 14.9031 51.2111 14.5721 50.8401 14.3697C50.4382 14.1505 49.7605 13.9993 48.782 13.9332L48.7816 13.9331C47.6191 13.852 46.7017 13.5805 46.0504 13.0991C45.3842 12.6067 45.0572 11.8886 45.0572 10.9743V10.8546C45.0572 10.3625 45.1627 9.92414 45.3806 9.54597C45.5933 9.16352 45.8774 8.84394 46.2319 8.58875L46.2333 8.58775L46.2347 8.58677C46.5983 8.33504 47.0029 8.14695 47.4474 8.02196C47.8902 7.8974 48.3528 7.83545 48.8345 7.83545C49.5026 7.83545 50.097 7.93073 50.614 8.12602C51.123 8.30511 51.5559 8.54817 51.9085 8.85798C52.2591 9.15288 52.5282 9.49897 52.7129 9.89587C52.892 10.2545 53.0132 10.6157 53.0749 10.9794C53.0997 11.1261 53.0047 11.2612 52.8662 11.2949L51.5756 11.6088C51.4092 11.6493 51.2533 11.5333 51.2307 11.3733C51.1536 10.828 50.9202 10.4092 50.5342 10.1026L50.5331 10.1018L50.532 10.1009C50.1345 9.77562 49.6012 9.60435 48.9143 9.60435C48.6499 9.60435 48.3924 9.6358 48.1415 9.69854L48.1381 9.69939L48.1346 9.70011C47.9 9.74951 47.6937 9.82898 47.5138 9.93693C47.3375 10.0427 47.1992 10.1759 47.0958 10.3368L47.0941 10.3395L47.0922 10.3421C46.997 10.4797 46.9458 10.6476 46.9458 10.8546C46.9458 11.2702 47.1131 11.5759 47.4565 11.7938C47.8276 12.0207 48.5317 12.1854 49.6063 12.2649L49.6069 12.265Z"
          fill="#FAF9F8"/>
    <path d="M49.6087 12.2419L49.6087 12.2419L49.6093 12.2419L49.6094 12.2419C50.7859 12.3366 51.7091 12.6221 52.3526 13.1217C53.0251 13.6198 53.3531 14.352 53.3531 15.2836V15.4033C53.3531 15.9115 53.2471 16.3768 53.0312 16.7948C52.8305 17.1959 52.5443 17.5386 52.1757 17.8225C51.8178 18.1084 51.3798 18.3186 50.8675 18.4574C50.3671 18.6099 49.8219 18.685 49.2335 18.685C48.4449 18.685 47.7549 18.5832 47.168 18.3736C47.168 18.3736 47.168 18.3736 47.168 18.3736L47.1655 18.3727L47.1648 18.3724L47.1648 18.3724L47.1623 18.3715C46.5977 18.1511 46.1163 17.8664 45.7224 17.5146L49.6087 12.2419ZM49.6087 12.2419L49.6081 12.2418L49.608 12.2418C48.5338 12.1622 47.8347 11.9978 47.4688 11.7741C47.1323 11.5605 46.969 11.2623 46.969 10.8546C46.969 10.6517 47.0191 10.4885 47.1113 10.3553L47.1113 10.3553L47.1131 10.3527L47.1131 10.3527L47.1136 10.352L47.1153 10.3494L47.1153 10.3494C47.2167 10.1916 47.3523 10.0608 47.5257 9.95682C47.7032 9.85034 47.907 9.77174 48.1394 9.72281L48.1346 9.70011L48.1394 9.72281L48.1428 9.72209L48.1428 9.7221L48.1437 9.72189L48.1471 9.72105C48.3962 9.65878 48.6518 9.62755 48.9143 9.62755C49.5973 9.62755 50.1249 9.79779 50.5174 10.1189L50.5174 10.1189L50.5184 10.1198L50.5187 10.1199L50.5197 10.1208L50.5197 10.1208C50.9007 10.4233 51.1314 10.8366 51.2077 11.3766C51.2322 11.5494 51.4007 11.6752 51.5811 11.6314L52.8717 11.3174C53.0216 11.281 53.1247 11.1346 53.0977 10.9755C53.0357 10.6095 52.9137 10.2461 52.7338 9.88579C52.5476 9.48584 52.2765 9.13723 51.9236 8.84039C51.5685 8.52844 51.1331 8.28409 50.622 8.10422C50.1018 7.90781 49.5047 7.81225 48.8345 7.81225C48.3508 7.81225 47.8861 7.87447 47.4411 7.99963C46.9943 8.12528 46.5873 8.31443 46.2215 8.5677L46.2215 8.5677L46.2201 8.56868L46.22 8.56868L46.2197 8.56894L46.2183 8.56993C46.2183 8.56993 46.2183 8.56993 46.2183 8.56994C45.8612 8.82708 45.5747 9.14919 45.3604 9.53454C45.1403 9.91675 45.034 10.3592 45.034 10.8546V10.9743C45.034 11.8948 45.3636 12.6203 46.0366 13.1178C46.6929 13.6028 47.6152 13.875 48.78 13.9563L48.78 13.9563L48.7804 13.9563L48.7804 13.9563C49.7582 14.0224 50.4317 14.1734 50.829 14.3901C51.0111 14.4894 51.148 14.6198 51.2396 14.786C51.3312 14.9524 51.3782 15.1561 51.3782 15.4033C51.3782 15.8475 51.191 16.1884 50.7961 16.4441C50.4019 16.6947 49.8604 16.8298 49.1537 16.8298C48.327 16.8298 47.689 16.6145 47.2175 16.204C46.7652 15.7976 46.4984 15.2702 46.42 14.6087C46.3991 14.4321 46.2283 14.3033 46.0462 14.3476L44.7508 14.6627C44.6097 14.6971 44.5092 14.829 44.5215 14.9793C44.5574 15.4164 44.6679 15.8512 44.8511 16.2831L44.8512 16.2832L44.8516 16.2842L44.8516 16.2842L44.852 16.2851L44.8521 16.2852C45.05 16.7378 45.3392 17.1458 45.7166 17.5093L45.7327 17.4925L45.7166 17.5093L45.7191 17.5117L45.7191 17.5117L45.7198 17.5123L45.7224 17.5146L49.6087 12.2419Z"
          stroke="#FAF9F8" stroke-width="0.0463912"/>
    <path d="M37.5606 1.99257C37.5606 1.52977 37.7202 1.13878 38.0394 0.819599C38.3745 0.484463 38.7735 0.316895 39.2363 0.316895C39.6991 0.316895 40.0901 0.484463 40.4093 0.819599C40.7444 1.13878 40.912 1.52977 40.912 1.99257C40.912 2.45538 40.7444 2.85435 40.4093 3.18949C40.0901 3.50867 39.6991 3.66826 39.2363 3.66826C38.7735 3.66826 38.3745 3.50867 38.0394 3.18949C37.7202 2.85435 37.5606 2.45538 37.5606 1.99257Z"
          fill="#FAF9F8"/>
    <path d="M43.3476 10.7917V11.7361C43.3476 11.8921 43.2231 12.0099 43.0787 12.0178C42.8221 12.0318 42.4867 12.1086 42.2219 12.2637C41.9602 12.417 41.7914 12.6296 41.7914 12.9198V16.8968C41.7914 17.3926 41.6294 17.8134 41.2995 18.1441C40.981 18.477 40.5648 18.6391 40.0691 18.6391H38.3201C38.1658 18.6391 38.0408 18.5141 38.0408 18.3598V17.1096C38.0408 16.9554 38.1658 16.8303 38.3201 16.8303H39.5105C39.656 16.8303 39.7324 16.7908 39.7761 16.7423C39.8231 16.6901 39.8629 16.5934 39.8629 16.418V12.9398C39.8629 12.6027 39.9854 12.2871 40.1624 11.999C40.3242 11.7357 40.5368 11.4868 40.7593 11.2552C40.2977 10.7773 39.8629 10.2219 39.8629 9.58809V7.36273C39.8629 7.18737 39.8231 7.09061 39.7761 7.0384C39.7324 6.98992 39.656 6.95041 39.5105 6.95041H38.3201C38.1658 6.95041 38.0408 6.82537 38.0408 6.67113V5.42088C38.0408 5.26664 38.1658 5.1416 38.3201 5.1416H40.0691C40.5648 5.1416 40.981 5.3037 41.2995 5.63658C41.6294 5.96728 41.7914 6.38814 41.7914 6.88392V9.60804C41.7914 9.89828 41.9602 10.1108 42.2219 10.2641C42.4867 10.4192 42.8221 10.4961 43.0787 10.5101C43.2231 10.518 43.3476 10.6358 43.3476 10.7917Z"
          fill="#FAF9F8"/>
    <path d="M43.3708 11.7361V10.7917C43.3708 10.6227 43.2358 10.4954 43.08 10.4869C42.8261 10.4731 42.4946 10.3969 42.2337 10.2441C41.9763 10.0934 41.8146 9.88729 41.8146 9.60804V6.88392C41.8146 6.38271 41.6507 5.95582 41.3161 5.62037C40.9927 5.28247 40.5702 5.11841 40.0691 5.11841H38.3201C38.153 5.11841 38.0176 5.25383 38.0176 5.42088V6.67113C38.0176 6.83818 38.153 6.9736 38.3201 6.9736H39.5105C39.6516 6.9736 39.7209 7.01178 39.7588 7.05392C39.8005 7.10022 39.8397 7.19041 39.8397 7.36273V9.58809C39.8397 10.2249 40.2713 10.7809 40.7271 11.2553C40.5097 11.4829 40.3019 11.7277 40.1427 11.9869C39.9643 12.2772 39.8397 12.597 39.8397 12.9398V16.418C39.8397 16.5903 39.8005 16.6805 39.7588 16.7268C39.7209 16.7689 39.6516 16.8071 39.5105 16.8071H38.3201C38.153 16.8071 38.0176 16.9425 38.0176 17.1096V18.3598C38.0176 18.5269 38.153 18.6623 38.3201 18.6623H40.0691C40.5702 18.6623 40.9927 18.4983 41.3161 18.1604C41.6507 17.8249 41.8146 17.398 41.8146 16.8968V12.9198C41.8146 12.6406 41.9763 12.4345 42.2337 12.2837C42.4946 12.1309 42.8261 12.0548 43.08 12.0409C43.2358 12.0324 43.3708 11.9052 43.3708 11.7361Z"
          stroke="#FAF9F8" stroke-width="0.0463912"/>
    <path d="M20.6289 17.5239L20.6276 17.5225C20.2897 17.1424 20.0258 16.6747 19.8329 16.1236L19.8322 16.1217L19.8316 16.1197C19.6513 15.565 19.5631 14.9264 19.5631 14.2067V8.39451C19.5631 8.24027 19.6881 8.11523 19.8424 8.11523H21.2123C21.3666 8.11523 21.4916 8.24027 21.4916 8.39451V14.0072C21.4916 15.0256 21.7016 15.7288 22.083 16.1579C22.4616 16.5838 23.0538 16.8136 23.899 16.8136C24.7965 16.8136 25.4789 16.5129 25.9704 15.923L25.9707 15.9227C26.4811 15.3127 26.7453 14.4943 26.7453 13.4486V8.39451C26.7453 8.24027 26.8703 8.11523 27.0245 8.11523H28.3945C28.5487 8.11523 28.6738 8.24027 28.6738 8.39451V20.956C28.6738 21.4518 28.5118 21.8726 28.1818 22.2033C27.8633 22.5362 27.4471 22.6983 26.9514 22.6983H23.1184C22.9641 22.6983 22.8391 22.5733 22.8391 22.419V21.1688C22.8391 21.0145 22.9641 20.8895 23.1184 20.8895H26.3928C26.5383 20.8895 26.6148 20.85 26.6584 20.8015C26.7054 20.7493 26.7453 20.6525 26.7453 20.4772V17.2032C26.7453 17.165 26.7301 17.1283 26.703 17.1013C26.6383 17.0367 26.5306 17.048 26.4777 17.1226C26.2125 17.4961 25.9014 17.812 25.5438 18.0688C24.9862 18.469 24.2872 18.6623 23.4601 18.6623C22.8937 18.6623 22.365 18.5656 21.876 18.3702C21.3974 18.187 20.9815 17.9048 20.6301 17.5253L20.6289 17.5239Z"
          fill="#FAF9F8"/>
    <path d="M20.6115 17.5393L20.6118 17.5397L20.6131 17.5411C20.9669 17.9231 21.3856 18.2073 21.8676 18.3918C22.3595 18.5884 22.8911 18.6855 23.4601 18.6855C24.2908 18.6855 24.9949 18.4913 25.5573 18.0876C25.9171 17.8293 26.23 17.5115 26.4966 17.136C26.5416 17.0726 26.6325 17.0637 26.6866 17.1177C26.7093 17.1404 26.7221 17.1711 26.7221 17.2032V20.4772C26.7221 20.6495 26.6828 20.7397 26.6411 20.786C26.6032 20.8281 26.534 20.8663 26.3928 20.8663H23.1184C22.9513 20.8663 22.8159 21.0017 22.8159 21.1688V22.419C22.8159 22.5861 22.9513 22.7215 23.1184 22.7215H26.9514C27.4525 22.7215 27.875 22.5574 28.1984 22.2195C28.533 21.8841 28.697 21.4572 28.697 20.956V8.39451C28.697 8.22746 28.5615 8.09204 28.3945 8.09204H27.0245C26.8575 8.09204 26.7221 8.22746 26.7221 8.39451V13.4486C26.7221 14.4903 26.459 15.303 25.9529 15.9078L25.9529 15.9079L25.9526 15.9081C25.4661 16.492 24.7907 16.7904 23.899 16.7904C23.0579 16.7904 22.4731 16.5618 22.1003 16.1425C21.7245 15.7196 21.5148 15.0233 21.5148 14.0072V8.39451C21.5148 8.22746 21.3794 8.09204 21.2123 8.09204H19.8424C19.6753 8.09204 19.5399 8.22746 19.5399 8.39451V14.2067C19.5399 14.9282 19.6283 15.5693 19.8095 16.1268L19.8095 16.1269L19.8102 16.1289L19.8102 16.1289L19.8103 16.1293L19.811 16.1313C20.0047 16.6847 20.2701 17.1552 20.6103 17.5379L20.6115 17.5393Z"
          stroke="#FAF9F8" stroke-width="0.0463912"/>
    <path d="M30.2935 11.6974V10.753C30.2935 10.5971 30.418 10.4793 30.5623 10.4714C30.819 10.4574 31.1543 10.3805 31.4191 10.2254C31.6809 10.0721 31.8496 9.85958 31.8496 9.56934V2.66224C31.8496 2.16646 32.0116 1.7456 32.3415 1.4149C32.6601 1.08202 33.0763 0.919922 33.572 0.919922H35.321C35.4752 0.919922 35.6003 1.04496 35.6003 1.1992V2.44945C35.6003 2.60369 35.4752 2.72873 35.321 2.72873H34.1306C33.9851 2.72873 33.9086 2.76824 33.865 2.81672C33.818 2.86893 33.7781 2.96569 33.7781 3.14105V9.54939C33.7781 10.1832 33.3434 10.7386 32.8818 11.2166C33.1043 11.4481 33.3169 11.697 33.4786 11.9603C33.6557 12.2484 33.7781 12.564 33.7781 12.9011V16.4335C33.7781 16.6088 33.818 16.7056 33.865 16.7578C33.9086 16.8063 33.9851 16.8458 34.1306 16.8458H35.321C35.4752 16.8458 35.6003 16.9708 35.6003 17.1251V18.3753C35.6003 18.5295 35.4752 18.6546 35.321 18.6546H33.572C33.0763 18.6546 32.6601 18.4925 32.3415 18.1596C32.0116 17.8289 31.8496 17.408 31.8496 16.9123V12.8811C31.8496 12.5909 31.6809 12.3783 31.4191 12.225C31.1543 12.0699 30.819 11.9931 30.5623 11.9791C30.418 11.9712 30.2935 11.8534 30.2935 11.6974Z"
          fill="#FAF9F8"/>
    <path d="M30.2703 10.753V11.6974C30.2703 11.8665 30.4053 11.9937 30.5611 12.0022C30.815 12.0161 31.1465 12.0922 31.4074 12.245C31.6648 12.3958 31.8264 12.6019 31.8264 12.8811V16.9123C31.8264 17.4135 31.9904 17.8404 32.325 18.1758C32.6484 18.5137 33.0709 18.6778 33.572 18.6778H35.321C35.488 18.6778 35.6235 18.5424 35.6235 18.3753V17.1251C35.6235 16.958 35.488 16.8226 35.321 16.8226H34.1306C33.9894 16.8226 33.9202 16.7844 33.8822 16.7423C33.8406 16.696 33.8013 16.6058 33.8013 16.4335V12.9011C33.8013 12.5583 33.6768 12.2385 33.4984 11.9482C33.3392 11.689 33.1314 11.4442 32.914 11.2166C33.3698 10.7422 33.8013 10.1862 33.8013 9.54939V3.14105C33.8013 2.96873 33.8406 2.87854 33.8822 2.83224C33.9202 2.7901 33.9894 2.75192 34.1306 2.75192H35.321C35.488 2.75192 35.6235 2.6165 35.6235 2.44945V1.1992C35.6235 1.03215 35.488 0.896726 35.321 0.896726H33.572C33.0709 0.896726 32.6484 1.06079 32.3249 1.39869C31.9904 1.73414 31.8264 2.16104 31.8264 2.66224V9.56934C31.8264 9.84859 31.6648 10.0547 31.4074 10.2054C31.1465 10.3582 30.815 10.4344 30.5611 10.4482C30.4053 10.4567 30.2703 10.5839 30.2703 10.753Z"
          stroke="#FAF9F8" stroke-width="0.0463912"/>
    <path d="M12.5882 17.8886L12.5867 17.887C12.2704 17.5556 12.1163 17.1352 12.1163 16.6412V4.32518C12.1163 4.17094 12.2413 4.0459 12.3956 4.0459H13.7655C13.9197 4.0459 14.0448 4.17094 14.0448 4.32518V8.11578H17.596C17.7502 8.11578 17.8753 8.24082 17.8753 8.39506V9.64531C17.8753 9.79955 17.7502 9.92459 17.596 9.92459H14.0448V16.1624C14.0448 16.3378 14.0847 16.4346 14.1316 16.4868C14.1753 16.5352 14.2518 16.5748 14.3973 16.5748H17.1172C17.2714 16.5748 17.3964 16.6998 17.3964 16.854V18.1043C17.3964 18.2585 17.2714 18.3836 17.1172 18.3836H13.8386C13.3421 18.3836 12.9207 18.2211 12.5898 17.8901L12.5882 17.8886Z"
          fill="#FAF9F8"/>
    <path d="M12.57 17.903L12.5867 17.887L12.57 17.903L12.5715 17.9046L12.5718 17.905L12.5734 17.9065C12.9091 18.2422 13.3366 18.4068 13.8386 18.4068H17.1172C17.2842 18.4068 17.4196 18.2713 17.4196 18.1043V16.854C17.4196 16.687 17.2842 16.5516 17.1172 16.5516H14.3973C14.2561 16.5516 14.1868 16.5134 14.1489 16.4712C14.1072 16.4249 14.068 16.3348 14.068 16.1624V9.94778H17.596C17.763 9.94778 17.8985 9.81236 17.8985 9.64531V8.39506C17.8985 8.22801 17.763 8.09259 17.596 8.09259H14.068V4.32518C14.068 4.15813 13.9326 4.0227 13.7655 4.0227H12.3956C12.2285 4.0227 12.0931 4.15813 12.0931 4.32518V16.6412C12.0931 17.1404 12.249 17.5668 12.57 17.903Z"
          stroke="#FAF9F8" stroke-width="0.0463912"/>
    <path d="M6.31575 12.266L6.31634 12.266C7.49069 12.3605 8.40882 12.6453 9.04737 13.1412C9.7132 13.6342 10.0388 14.3589 10.0388 15.2846V15.4043C10.0388 15.9093 9.93342 16.371 9.71927 16.7855C9.52016 17.1833 9.2362 17.5233 8.87021 17.8052C8.51513 18.0889 8.07998 18.2979 7.56989 18.4361C7.07193 18.5879 6.52894 18.6628 5.9423 18.6628C5.15561 18.6628 4.46836 18.5612 3.88463 18.3527L3.88209 18.3518L3.87957 18.3508C3.31707 18.1313 2.83823 17.8479 2.44667 17.4983L2.44406 17.496L2.44153 17.4935C2.06615 17.132 1.77881 16.7265 1.58213 16.2769L1.58172 16.276L1.58131 16.275C1.39897 15.8452 1.28912 15.4128 1.25348 14.9784C1.2421 14.8398 1.33473 14.718 1.46513 14.6862L2.76056 14.3711C2.92848 14.3303 3.08647 14.449 3.10583 14.6124C3.18481 15.2791 3.45407 15.8119 3.91102 16.2224C4.3877 16.6375 5.03164 16.854 5.86249 16.854C6.572 16.854 7.11838 16.7184 7.51756 16.4646C7.91881 16.2047 8.11026 15.8567 8.11026 15.4043C8.11026 14.904 7.91992 14.5731 7.54893 14.3707C7.14701 14.1515 6.46934 14.0003 5.49084 13.9341L5.49043 13.9341C4.32798 13.853 3.41055 13.5815 2.75926 13.1001C2.09299 12.6076 1.76603 11.8896 1.76603 10.9753V10.8556C1.76603 10.3634 1.87159 9.92506 2.08944 9.54687C2.30213 9.16446 2.5863 8.8449 2.9407 8.58973L2.94209 8.58873L2.94351 8.58775C3.30711 8.33602 3.71177 8.14793 4.1562 8.02293C4.59906 7.89838 5.06164 7.83643 5.54329 7.83643C6.21145 7.83643 6.80582 7.93171 7.32285 8.127C7.83188 8.3061 8.26479 8.54917 8.61734 8.859C8.96797 9.1539 9.23707 9.49999 9.4218 9.89689C9.60082 10.2555 9.72205 10.6167 9.7837 10.9804C9.80856 11.127 9.71358 11.2622 9.57507 11.2959L8.2844 11.6098C8.11805 11.6503 7.96215 11.5343 7.93952 11.3743C7.86239 10.829 7.62907 10.4102 7.24299 10.1036L7.24193 10.1028L7.24088 10.1019C6.84328 9.7766 6.31003 9.60533 5.62309 9.60533C5.35872 9.60533 5.10124 9.63678 4.85028 9.69952L4.84689 9.70037L4.84348 9.70109C4.60883 9.75049 4.40251 9.82996 4.2226 9.9379C4.04635 10.0437 3.90805 10.1769 3.80462 10.3378L3.80289 10.3405L3.80108 10.3431C3.70583 10.4807 3.65463 10.6486 3.65463 10.8556C3.65463 11.2712 3.82199 11.5769 4.16541 11.7948C4.53648 12.0217 5.24061 12.1863 6.31516 12.2659L6.31575 12.266Z"
          fill="#FAF9F8"/>
    <path d="M6.31745 12.2428L6.3176 12.2428L6.31819 12.2429L6.3182 12.2429C7.4947 12.3376 8.41786 12.6231 9.06139 13.1227C9.73395 13.6208 10.062 14.353 10.062 15.2846V15.4043C10.062 15.9125 9.95592 16.3779 9.73995 16.796C9.53923 17.1969 9.25303 17.5396 8.88452 17.8234C8.52662 18.1093 8.08863 18.3196 7.57629 18.4584C7.07596 18.6109 6.53077 18.686 5.9423 18.686C5.15371 18.686 4.46369 18.5841 3.87683 18.3746L3.87429 18.3737L3.87364 18.3734L3.87364 18.3734L3.87114 18.3724C3.87113 18.3724 3.87113 18.3724 3.87113 18.3724C3.30649 18.1521 2.82516 17.8673 2.43122 17.5156L2.42861 17.5133L2.42796 17.5127L2.42797 17.5127L2.42544 17.5102C2.04803 17.1468 1.75888 16.7388 1.56089 16.2862L6.31745 12.2428ZM6.31745 12.2428L6.31687 12.2428C5.24268 12.1632 4.54361 11.9988 4.17767 11.7751C3.84118 11.5615 3.67783 11.2633 3.67783 10.8556C3.67783 10.6527 3.72795 10.4895 3.82015 10.3563L3.82197 10.3537L3.82198 10.3537L3.8224 10.353L3.82412 10.3503L3.82413 10.3503M6.31745 12.2428L3.82413 10.3503M5.48927 13.9573L5.48923 13.9573L5.48883 13.9573L5.48882 13.9573C4.32404 13.876 3.40168 13.6038 2.74548 13.1187C2.07241 12.6213 1.74283 11.8958 1.74283 10.9753V10.8556C1.74283 10.3601 1.84912 9.91767 2.06925 9.53544C2.28359 9.15012 2.57002 8.82804 2.92714 8.57091L2.92854 8.5699L2.92888 8.56966L2.92888 8.56966L2.93029 8.56868L2.9303 8.56868C3.29613 8.31541 3.70315 8.12626 4.14992 8.0006C4.59493 7.87545 5.05963 7.81323 5.54329 7.81323C6.2135 7.81323 6.81066 7.90879 7.33081 8.10521C7.84195 8.28508 8.27743 8.52944 8.63247 8.84141C8.98535 9.13825 9.2565 9.48686 9.44269 9.88681C9.62255 10.2471 9.74451 10.6105 9.80657 10.9765C9.83354 11.1356 9.73045 11.2819 9.58056 11.3184L8.28988 11.6323C8.1095 11.6762 7.94099 11.5504 7.91655 11.3776C7.84018 10.8376 7.60956 10.4243 7.22856 10.1218L7.22856 10.1218L7.2275 10.1209L7.22723 10.1207L7.22619 10.1199C6.83374 9.79876 6.30613 9.62852 5.62309 9.62852C5.36058 9.62852 5.10499 9.65975 4.85591 9.72203L4.85252 9.72287L4.85167 9.72308L4.85167 9.72307L4.84826 9.72378L5.48927 13.9573ZM5.48927 13.9573C6.46706 14.0234 7.14051 14.1743 7.53782 14.3911C7.71995 14.4904 7.85684 14.6208 7.9484 14.787C8.04004 14.9533 8.08706 15.1571 8.08706 15.4043C8.08706 15.8485 7.89993 16.1893 7.50506 16.445C7.11082 16.6957 6.56927 16.8308 5.86249 16.8308C5.03583 16.8308 4.39783 16.6155 3.92637 16.205C3.47404 15.7986 3.20723 15.2712 3.12887 14.6097C3.10794 14.4331 2.93714 14.3043 2.75507 14.3486L1.45964 14.6637C1.3185 14.698 1.21802 14.83 1.23036 14.9803C1.26622 15.4174 1.37672 15.8522 1.55995 16.284L5.48927 13.9573ZM3.82413 10.3503C3.92554 10.1926 4.06118 10.0618 4.23454 9.95779C4.412 9.85132 4.61585 9.77271 4.84825 9.72379L3.82413 10.3503ZM1.56047 16.2853L1.56088 16.2862L1.55996 16.2841L1.56035 16.285L1.56047 16.2853Z"
          stroke="#FAF9F8" stroke-width="0.0463912"/>
</svg>
