<svg width="30" height="31" viewBox="0 0 26 27" fill="none" xmlns="http://www.w3.org/2000/svg">
    <path d="M18.9917 13.4769L17.7447 13.5641M18.9917 13.4769L18.6274 18.792C18.5538 19.866 17.6433 20.6891 16.5673 20.6542L9.60171 20.4285C9.0892 20.4119 8.6723 20.0103 8.63653 19.4988L8.09349 11.7329C10.113 11.5917 10.3671 9.05254 10.3189 7.41609C10.3012 6.81623 10.9173 6.34575 11.4715 6.57603C12.2754 6.91008 12.8216 7.66966 12.8823 8.53807L13.0813 11.3841L18.8173 10.983C19.506 10.9349 20.1033 11.4541 20.1515 12.1428C20.1996 12.8315 19.6804 13.4288 18.9917 13.4769Z"
          stroke="current" stroke-width="1.5" stroke-linecap="round" stroke-linejoin="round"/>
    <path d="M5.59954 11.9072C5.56102 11.3563 5.97641 10.8784 6.52735 10.8399L7.02613 10.805C7.57707 10.7665 8.05493 11.1819 8.09345 11.7328L8.68638 20.2121C8.72491 20.7631 8.30951 21.2409 7.75857 21.2795L7.25979 21.3143C6.70885 21.3529 6.231 20.9375 6.19247 20.3865L5.59954 11.9072Z"
          stroke="current" stroke-width="1.5" stroke-linecap="round" stroke-linejoin="round"/>
</svg>
